<svg xmlns="http://www.w3.org/2000/svg" xmlns:xlink="http://www.w3.org/1999/xlink" width="500" zoomAndPan="magnify" viewBox="0 0 375 374.999991" height="500" preserveAspectRatio="xMidYMid meet" version="1.0"><defs><clipPath id="a2d0feb4db"><path d="M 43.34375 86 L 331 86 L 331 289 L 43.34375 289 Z M 43.34375 86 " clip-rule="nonzero"/></clipPath></defs><g clip-path="url(#a2d0feb4db)"><path fill="#5271ff" d="M 97.410156 247.824219 C 117.078125 250.761719 130.109375 240.183594 138.0625 222.859375 C 145.535156 206.585938 152.519531 190.082031 160.230469 173.925781 C 161.816406 170.601562 165.644531 168.347656 168.4375 165.601562 C 169.410156 166.464844 170.390625 167.328125 171.367188 168.1875 C 153.675781 208.035156 135.984375 247.886719 117.640625 289.203125 L 180.304688 289.203125 C 180.535156 288.820312 180.75 288.445312 180.925781 288.089844 C 185.988281 277.675781 189.996094 266.746094 195.132812 256.371094 C 196.554688 253.488281 200.484375 251.839844 203.265625 249.628906 C 203.957031 250.4375 204.648438 251.246094 205.34375 252.050781 C 200.203125 264.125 195.066406 276.195312 189.523438 289.207031 L 251.785156 289.207031 C 251.855469 289.074219 251.929688 288.949219 251.996094 288.820312 C 257.113281 278.433594 261.09375 267.492188 266.167969 257.085938 C 267.675781 253.984375 271.371094 251.957031 274.066406 249.429688 C 275.003906 250.222656 275.9375 251.015625 276.875 251.808594 C 271.746094 263.886719 266.617188 275.96875 260.996094 289.214844 L 324.8125 289.214844 C 325.667969 287.550781 326.210938 285.585938 326.449219 283.304688 C 328.34375 264.945312 331.554688 246.226562 329.804688 228.085938 C 325.964844 188.285156 292.082031 152.175781 254.199219 144.804688 C 249.9375 171.882812 240.875 196.253906 213.90625 208.710938 C 212.949219 208.050781 211.992188 207.386719 211.042969 206.726562 C 213.246094 203.65625 215.277344 200.445312 217.691406 197.550781 C 224.347656 189.554688 233.019531 182.632812 237.570312 173.609375 C 251.269531 146.417969 246.484375 116.925781 247.230469 86.171875 C 217.511719 87.347656 189.070312 85.738281 161.59375 90.144531 C 109.738281 98.460938 80.289062 139.378906 100.675781 192.046875 C 101.84375 195.0625 102.546875 198.257812 103.46875 201.371094 C 102.554688 201.921875 101.632812 202.476562 100.71875 203.019531 C 98.730469 200.84375 96.085938 198.980469 94.890625 196.429688 C 92.222656 190.71875 90.628906 184.5 87.871094 178.835938 C 86.710938 176.449219 83.785156 173.421875 81.539062 173.320312 C 69.699219 172.769531 57.820312 173.066406 43.441406 173.066406 C 54.132812 195.46875 57.433594 219.292969 73.621094 236.632812 C 79.238281 242.640625 89.003906 246.566406 97.410156 247.824219 Z M 97.410156 247.824219 " fill-opacity="1" fill-rule="nonzero"/></g></svg>