<svg xmlns="http://www.w3.org/2000/svg" xmlns:xlink="http://www.w3.org/1999/xlink" width="500" zoomAndPan="magnify" viewBox="0 0 375 374.999991" height="500" preserveAspectRatio="xMidYMid meet" version="1.0"><defs><clipPath id="0d9f05e129"><path d="M 43.34375 37.5 L 337.5 37.5 L 337.5 331.65625 L 43.34375 331.65625 Z M 43.34375 37.5 " clip-rule="nonzero"/></clipPath><clipPath id="db7963e4ed"><path d="M 190.421875 37.5 C 109.191406 37.5 43.34375 103.347656 43.34375 184.578125 C 43.34375 265.808594 109.191406 331.65625 190.421875 331.65625 C 271.652344 331.65625 337.5 265.808594 337.5 184.578125 C 337.5 103.347656 271.652344 37.5 190.421875 37.5 Z M 190.421875 37.5 " clip-rule="nonzero"/></clipPath><clipPath id="baf5bea41b"><path d="M 0.34375 0.5 L 294.5 0.5 L 294.5 294.65625 L 0.34375 294.65625 Z M 0.34375 0.5 " clip-rule="nonzero"/></clipPath><clipPath id="dd446c7743"><path d="M 147.421875 0.5 C 66.191406 0.5 0.34375 66.347656 0.34375 147.578125 C 0.34375 228.808594 66.191406 294.65625 147.421875 294.65625 C 228.652344 294.65625 294.5 228.808594 294.5 147.578125 C 294.5 66.347656 228.652344 0.5 147.421875 0.5 Z M 147.421875 0.5 " clip-rule="nonzero"/></clipPath><clipPath id="2ce1af86b7"><rect x="0" width="295" y="0" height="295"/></clipPath><clipPath id="c788c971d8"><path d="M 63.253906 102.175781 L 296 102.175781 L 296 267 L 63.253906 267 Z M 63.253906 102.175781 " clip-rule="nonzero"/></clipPath></defs><g clip-path="url(#0d9f05e129)"><g clip-path="url(#db7963e4ed)"><g transform="matrix(1, 0, 0, 1, 43, 37)"><g clip-path="url(#2ce1af86b7)"><g clip-path="url(#baf5bea41b)"><g clip-path="url(#dd446c7743)"><path fill="#11245b" d="M 0.34375 0.5 L 294.5 0.5 L 294.5 294.65625 L 0.34375 294.65625 Z M 0.34375 0.5 " fill-opacity="1" fill-rule="nonzero"/></g></g></g></g></g></g><g clip-path="url(#c788c971d8)"><path fill="#5271ff" d="M 107.039062 233.429688 C 122.964844 235.808594 133.523438 227.242188 139.960938 213.214844 C 146.015625 200.035156 151.667969 186.667969 157.914062 173.582031 C 159.199219 170.890625 162.296875 169.066406 164.558594 166.84375 C 165.347656 167.539062 166.144531 168.242188 166.933594 168.9375 C 152.605469 201.207031 138.28125 233.480469 123.421875 266.941406 L 174.171875 266.941406 C 174.359375 266.632812 174.53125 266.328125 174.671875 266.039062 C 178.773438 257.605469 182.019531 248.753906 186.179688 240.351562 C 187.332031 238.015625 190.515625 236.683594 192.765625 234.894531 C 193.324219 235.546875 193.886719 236.203125 194.449219 236.855469 C 190.285156 246.628906 186.125 256.40625 181.636719 266.945312 L 232.058594 266.945312 C 232.117188 266.835938 232.175781 266.734375 232.230469 266.632812 C 236.375 258.21875 239.597656 249.355469 243.707031 240.929688 C 244.929688 238.417969 247.921875 236.777344 250.105469 234.730469 C 250.863281 235.375 251.617188 236.015625 252.378906 236.660156 C 248.226562 246.4375 244.070312 256.222656 239.519531 266.949219 L 291.199219 266.949219 C 291.890625 265.601562 292.332031 264.011719 292.523438 262.164062 C 294.058594 247.296875 296.660156 232.136719 295.242188 217.445312 C 292.132812 185.210938 264.695312 155.96875 234.015625 150 C 230.5625 171.929688 223.226562 191.667969 201.382812 201.757812 C 200.609375 201.222656 199.835938 200.683594 199.0625 200.148438 C 200.851562 197.660156 202.492188 195.0625 204.449219 192.714844 C 209.839844 186.242188 216.863281 180.636719 220.546875 173.328125 C 231.640625 151.304688 227.765625 127.425781 228.371094 102.515625 C 204.300781 103.46875 181.269531 102.164062 159.015625 105.734375 C 117.023438 112.46875 93.175781 145.605469 109.683594 188.257812 C 110.632812 190.699219 111.199219 193.289062 111.945312 195.8125 C 111.203125 196.257812 110.460938 196.703125 109.71875 197.144531 C 108.109375 195.382812 105.964844 193.875 105 191.808594 C 102.835938 187.183594 101.546875 182.148438 99.316406 177.5625 C 98.375 175.628906 96.003906 173.175781 94.183594 173.09375 C 84.597656 172.644531 74.976562 172.886719 63.335938 172.886719 C 71.992188 191.027344 74.664062 210.324219 87.773438 224.367188 C 92.320312 229.234375 100.234375 232.410156 107.039062 233.429688 Z M 107.039062 233.429688 " fill-opacity="1" fill-rule="nonzero"/></g></svg>